<?xml version="1.0" encoding="utf-8"?>
<!-- Generator: Adobe Illustrator 15.1.0, SVG Export Plug-In . SVG Version: 6.00 Build 0)  -->
<!DOCTYPE svg PUBLIC "-//W3C//DTD SVG 1.1//EN" "http://www.w3.org/Graphics/SVG/1.1/DTD/svg11.dtd">
<svg version="1.1" id="Layer_1" xmlns="http://www.w3.org/2000/svg" xmlns:xlink="http://www.w3.org/1999/xlink" x="0px" y="0px"
	 width="720px" height="720px" viewBox="0 0 720 720" enable-background="new 0 0 720 720" xml:space="preserve">
<g>
	<g>
		<defs>
			<rect id="SVGID_1_" x="0.821" y="6.006" width="716.313" height="704.37"/>
		</defs>
		<clipPath id="SVGID_2_">
			<use xlink:href="#SVGID_1_"  overflow="visible"/>
		</clipPath>
		<g clip-path="url(#SVGID_2_)">
			<defs>
				<rect id="SVGID_3_" x="-122.813" y="-42.269" width="1059.206" height="828.943"/>
			</defs>
			<clipPath id="SVGID_4_">
				<use xlink:href="#SVGID_3_"  overflow="visible"/>
			</clipPath>
			<path clip-path="url(#SVGID_4_)" fill="#231F20" d="M384.227,138.96c19.817-10.192,26.151-32.211,11.234-49.417
				c-10.86-14.049-31.973-13.171-33.117-33.366c0.163-17.834,21.178-35.63,29.333-50.172c-1.066,10.621-0.312,28.718,3.471,39.739
				c8.746,21.391,25.662,21.289,41.372,35.742c26.441,25.487,7.001,44.729-13.887,65.542L384.227,138.96z"/>
			<path clip-path="url(#SVGID_4_)" fill="#231F20" d="M489.585,179.074c22.284,0.296,38.208-16.179,33.105-38.371
				c-2.998-17.502-22.057-26.63-13.595-45.001c8.511-15.674,35.417-21.534,49.443-30.549c-5.926,8.877-13.752,25.213-15.58,36.722
				c-2.307,22.994,12.677,30.842,19.772,50.975c11.396,34.913-14.801,42.787-43.012,51.367L489.585,179.074z"/>
			<path clip-path="url(#SVGID_4_)" fill="#231F20" d="M563.219,266.974c19.168,11.369,41.186,5.029,47.829-16.753
				c6.129-16.667-5.842-34.081,10.655-45.786c15.194-9.342,41.438-1.005,58.091-1.825c-9.562,4.74-24.493,14.999-31.813,24.061
				c-13.467,18.783-4.396,33.054-8.28,54.044c-7.533,35.945-34.164,29.708-62.897,23.08L563.219,266.974z"/>
			<path clip-path="url(#SVGID_4_)" fill="#231F20" d="M583.976,380.661c11.114,19.318,33.405,24.61,49.891,8.899
				c13.527-11.506,11.653-32.554,31.776-34.646c17.819-0.676,36.583,19.478,51.491,26.942c-10.656-0.569-28.7,1.035-39.533,5.332
				c-20.952,9.747-20.059,26.633-33.755,43.007c-24.216,27.611-44.352,9.098-66.123-10.791L583.976,380.661z"/>
			<path clip-path="url(#SVGID_4_)" fill="#231F20" d="M535.716,501.587c-1.01,22.264,14.946,38.706,37.292,34.316
				c17.59-2.437,27.321-21.193,45.413-12.143c15.394,9.007,20.388,36.086,28.95,50.395c-8.683-6.208-24.76-14.551-36.204-16.751
				c-22.911-3.04-31.233,11.684-51.581,18.133c-35.262,10.271-42.293-16.166-49.962-44.637L535.716,501.587z"/>
			<path clip-path="url(#SVGID_4_)" fill="#231F20" d="M421.858,579.283c-14.086,17.272-11.081,39.985,9.477,49.785
				c15.57,8.534,34.567-0.721,43.696,17.334c6.986,16.408-5.152,41.124-6.811,57.713c-3.271-10.157-11.197-26.443-19.076-35.032
				c-16.577-16.1-32.038-9.244-52.219-16.202c-34.431-12.779-24.312-38.192-13.492-65.624L421.858,579.283z"/>
			<path clip-path="url(#SVGID_4_)" fill="#231F20" d="M297.644,579.77c-21.051,7.323-30.403,28.236-18.037,47.361
				c8.785,15.432,29.812,17.512,28.12,37.672c-2.656,17.633-25.95,32.316-36.062,45.573c2.543-10.364,4.331-28.394,2.126-39.835
				c-5.673-22.399-22.433-24.669-35.969-41.174c-22.619-28.938-0.676-45.27,22.921-62.955L297.644,579.77z"/>
			<path clip-path="url(#SVGID_4_)" fill="#231F20" d="M182.647,503.559c-21.445-6.073-41.099,5.697-41.936,28.458
				c-1.653,17.678,14.38,31.438,1.436,46.988c-12.29,12.922-39.793,11.592-55.679,16.656c8.024-7.034,19.829-20.78,24.584-31.418
				c8.197-21.605-4.23-33.073-5.854-54.359c-1.937-36.676,25.406-37.476,54.878-38.43L182.647,503.559z"/>
			<path clip-path="url(#SVGID_4_)" fill="#231F20" d="M132.902,383.619c-13.646-17.622-36.448-19.827-50.641-2.015
				c-11.83,13.241-7.105,33.834-26.755,38.653c-17.562,3.098-38.898-14.312-54.685-19.671c10.633-0.895,28.294-4.939,38.438-10.673
				c19.428-12.513,16.243-29.121,27.579-47.207c20.227-30.655,42.698-15.058,66.976,1.681L132.902,383.619z"/>
			<path clip-path="url(#SVGID_4_)" fill="#231F20" d="M160.217,254.206c-2.367-22.161-20.622-36.006-42.05-28.289
				c-17.019,5.062-23.804,25.071-43.059,18.859c-16.575-6.579-25.601-32.594-36.229-45.441c9.52,4.822,26.678,10.644,38.321,11.086
				c23.106-0.456,29.107-16.265,48.251-25.713c33.303-15.479,44.249,9.589,56.13,36.579L160.217,254.206z"/>
			<path clip-path="url(#SVGID_4_)" fill="#231F20" d="M253.543,163.631c10.885-19.451,3.998-41.3-17.947-47.397
				c-16.812-5.713-33.918,6.689-46.036-9.513c-9.716-14.953-2.038-41.396-3.28-58.022c4.979,9.438,15.612,24.11,24.855,31.204
				c19.114,12.991,33.152,3.563,54.234,6.926c36.122,6.63,30.551,33.412,24.638,62.3L253.543,163.631z"/>
		</g>
		<g clip-path="url(#SVGID_2_)">
			<defs>
				<rect id="SVGID_5_" x="-122.813" y="-42.269" width="1059.206" height="828.943"/>
			</defs>
			<clipPath id="SVGID_6_">
				<use xlink:href="#SVGID_5_"  overflow="visible"/>
			</clipPath>
			<path clip-path="url(#SVGID_6_)" fill-rule="evenodd" clip-rule="evenodd" fill="#231F20" d="M466.977,165.683
				c-9.929-6.034-18.521-17.175-12.864-28.966c7.006-5.896,14.328-8.753,19.61-16.576c6.391-9.471,4.353-19.27,5.139-28.292
				c0.311,0.251,0.622,0.504,0.932,0.756c5.188,4.388,10.876,19.065,12.599,26.429c0.469,2.004,1.324,3.141,1.288,4.136
				c-0.542,15.258-23.056,18.626-26.166,31.354C466.514,158.598,469.011,162.772,466.977,165.683"/>
			<path clip-path="url(#SVGID_6_)" fill-rule="evenodd" clip-rule="evenodd" fill="#231F20" d="M551.512,245.613
				c-6.852-9.382-10.515-22.968-0.768-31.686c8.732-2.756,16.59-2.586,24.471-7.783c9.536-6.294,11.412-16.125,15.603-24.154
				c0.189,0.351,0.38,0.703,0.569,1.055c3.105,6.042,2.729,21.78,1.491,29.24c-0.334,2.032,0.021,3.408-0.394,4.313
				c-6.357,13.884-28.441,8.354-36.198,18.915C553.799,238.893,554.507,243.707,551.512,245.613"/>
			<path clip-path="url(#SVGID_6_)" fill-rule="evenodd" clip-rule="evenodd" fill="#231F20" d="M584.424,358.615
				c-0.904-11.584,3.118-25.068,15.987-27.367c8.881,2.24,15.477,6.513,24.913,6.229c11.42-0.348,18.179-7.728,25.962-12.361
				c-0.022,0.399-0.046,0.799-0.067,1.198c-0.532,6.773-9.117,19.966-14.087,25.666c-1.352,1.552-1.773,2.909-2.604,3.463
				c-12.699,8.476-28.587-7.828-40.735-2.914C589.903,354.099,587.974,358.564,584.424,358.615"/>
			<path clip-path="url(#SVGID_6_)" fill-rule="evenodd" clip-rule="evenodd" fill="#231F20" d="M558.527,467.806
				c6.577-9.573,18.186-17.532,29.637-11.228c5.496,7.325,7.939,14.794,15.456,20.506c9.099,6.91,18.995,5.424,27.96,6.713
				c-0.267,0.297-0.536,0.594-0.807,0.891c-4.672,4.93-19.641,9.794-27.092,11.1c-2.026,0.355-3.208,1.144-4.2,1.056
				c-15.208-1.396-17.312-24.062-29.844-27.882C565.627,467.739,561.317,469.999,558.527,467.806"/>
			<path clip-path="url(#SVGID_6_)" fill-rule="evenodd" clip-rule="evenodd" fill="#231F20" d="M463.231,563.451
				c10.726-4.462,24.792-4.834,30.979,6.682c0.635,9.139-1.376,16.734,1.829,25.613c3.883,10.747,12.997,14.877,19.822,20.829
				c-0.386,0.106-0.773,0.206-1.161,0.312c-6.601,1.6-21.809-2.456-28.773-5.406c-1.896-0.804-3.314-0.785-4.103-1.397
				c-12.004-9.435-1.451-29.606-9.896-39.624C469.228,567.254,464.381,566.807,463.231,563.451"/>
			<path clip-path="url(#SVGID_6_)" fill-rule="evenodd" clip-rule="evenodd" fill="#231F20" d="M325.226,586.555
				c11.585,0.854,24.309,6.863,24.639,19.931c-3.554,8.445-8.775,14.316-9.916,23.688c-1.381,11.341,4.891,19.139,8.301,27.529
				c-0.395-0.077-0.785-0.164-1.176-0.245c-6.615-1.547-18.361-12.028-23.247-17.8c-1.329-1.572-2.605-2.196-3.03-3.097
				c-6.462-13.833,12.053-27.081,9.031-39.829C328.862,592.654,324.739,590.066,325.226,586.555"/>
			<path clip-path="url(#SVGID_6_)" fill-rule="evenodd" clip-rule="evenodd" fill="#231F20" d="M214.378,536.605
				c7.635,8.757,12.448,21.981,3.49,31.498c-8.468,3.501-16.309,4.002-23.713,9.86c-8.959,7.087-9.988,17.041-13.469,25.404
				c-0.224-0.333-0.443-0.67-0.663-1.005c-3.613-5.752-4.587-21.462-3.998-29.002c0.161-2.054-0.307-3.393,0.024-4.334
				c5.14-14.375,27.618-10.763,34.439-21.948C212.673,543.499,211.56,538.761,214.378,536.605"/>
			<path clip-path="url(#SVGID_6_)" fill-rule="evenodd" clip-rule="evenodd" fill="#231F20" d="M139.468,418.375
				c3.023,11.217,1.554,25.214-10.671,29.84c-9.146-0.564-16.411-3.554-25.634-1.533c-11.161,2.442-16.449,10.941-23.242,16.928
				c-0.055-0.395-0.105-0.796-0.156-1.189c-0.725-6.756,5.284-21.305,9.121-27.821c1.044-1.775,1.211-3.186,1.921-3.885
				c10.924-10.666,29.543,2.433,40.578-4.633C134.915,423.822,135.993,419.076,139.468,418.375"/>
			<path clip-path="url(#SVGID_6_)" fill-rule="evenodd" clip-rule="evenodd" fill="#231F20" d="M146.145,282.596
				c-3.841,10.964-12.959,21.683-25.664,18.595c-7.226-5.633-11.535-12.203-20.285-15.747c-10.589-4.29-19.754-0.266-28.744,0.838
				c0.18-0.358,0.365-0.714,0.547-1.07c3.218-5.983,16.395-14.591,23.243-17.804c1.863-0.874,2.797-1.944,3.779-2.119
				c15.038-2.633,23.003,18.696,36.098,19.099C139.312,284.519,142.88,281.211,146.145,282.596"/>
			<path clip-path="url(#SVGID_6_)" fill-rule="evenodd" clip-rule="evenodd" fill="#231F20" d="M223.056,182.292
				c-9.271,7.003-22.797,10.88-31.666,1.275c-2.9-8.691-2.849-16.549-8.173-24.345c-6.442-9.436-16.303-11.157-24.4-15.215
				c0.348-0.199,0.7-0.393,1.048-0.59c5.991-3.202,21.731-3.073,29.211-1.957c2.036,0.304,3.408-0.069,4.32,0.328
				c13.983,6.135,8.806,28.306,19.485,35.891C216.3,180.11,221.105,179.333,223.056,182.292"/>
			<path clip-path="url(#SVGID_6_)" fill-rule="evenodd" clip-rule="evenodd" fill="#231F20" d="M348.849,136.284
				c-11.531,1.411-25.179-2.017-28.036-14.773c1.851-8.972,5.833-15.748,5.135-25.163c-0.843-11.395-8.51-17.829-13.48-25.398
				c0.4,0.001,0.802,0.01,1.202,0.015c6.789,0.235,20.342,8.238,26.255,12.955c1.609,1.284,2.982,1.647,3.572,2.449
				c9.023,12.32-6.573,28.906-1.137,40.823C344.099,131.008,348.648,132.743,348.849,136.284"/>
		</g>
		<g clip-path="url(#SVGID_2_)">
			<defs>
				<rect id="SVGID_7_" x="-122.813" y="-42.269" width="1059.206" height="828.943"/>
			</defs>
			<clipPath id="SVGID_8_">
				<use xlink:href="#SVGID_7_"  overflow="visible"/>
			</clipPath>
			<path clip-path="url(#SVGID_8_)" fill-rule="evenodd" clip-rule="evenodd" fill="#231F1F" d="M527.147,288.349
				c-5.799-2.428-13.479-5.159-20.383-5.331c-5.354-0.146-10.563,1.606-15.266,2.789c-4.774,1.231-9.374,2.564-13.737,4.337
				c2.645,3.637,6.52,6.884,10.178,10.176c3.68,3.317,7.516,6.589,10.952,9.934c-0.412,1.282-0.64,2.761-1.014,4.063
				c1.067,0.298,1.857,0.833,2.269,1.801c-1.185,2.375-2.371,4.749-3.558,7.122c-0.68-0.503-1.362-1.016-1.764-1.79
				c-0.686,0.872-1.502,2.911-2.547,2.538c1.229-4.261,2.779-8.233,3.559-12.981c-5.861-6.325-13.087-12.042-19.866-17.036
				c-1.111-0.851-2.328-1.091-3.567-1.791c-4.55-2.619-8.795-6.473-13.225-9.669c-13.465-9.744-26.552-20.208-39.981-29.54
				c-3.654-6.998-6.9-14.843-10.928-22.387c-3.873-7.295-7.269-15.773-12.471-21.124c-4.992-5.143-12.415-8.023-20.63-9.936
				c-3.098-2.043-6.506-3.948-10.44-6.11c-2.667-1.475-8.329-5.207-11.189-5.594c-4.097-0.577-9.504,0.293-14.25,0.507
				c-8.673,0.394-18.709,1.21-26.216-0.268c-1.454-0.291-2.643-1.35-3.836-1.765c-3.796-1.358-7.752-1.042-12.212-1.548h-2.537
				c-19.164,0.606-30.116,6.293-35.404,19.596c-0.743,1.938-0.866,4.31-2.03,6.375c-1.143,2.009-4.582,3.199-4.073,6.368
				c-11.137,1.673-21.179,6.359-22.409,17.306c-0.373,3.286,0.192,6.708,0.533,9.929c0.248,2.452,1.582,7.194,1.263,9.16
				c-0.288,1.848-4.294,3.683-4.073,5.867c0.235,2.471,3.758,2.037,6.104,3.057c1.992,0.847,2.663,2.274,3.827,2.787
				c2.153,4.552-0.022,6.536-2.297,9.691c-1.292,1.765-2.573,3.436-3.561,4.823c-2.326,3.313-5.627,7.289-6.625,10.439
				c-0.525,1.699,0.273,3.102-1.279,4.845c-3.124-5.453-4.411-9.909-7.37-15.284c-2.253-4.081-6.52-11.346-10.44-12.21
				c-4.722-1.07-11.003,0.211-15.017,0.504c-4.607,0.336-10.178,0.166-14.007,1.769c-5.896,2.492-8.481,12.981-9.406,19.867v4.845
				c0.54,20.963,3.831,44.195,13.985,56.749c1.087,1.355,2.472,3.028,3.831,4.084c1.691,1.316,5.181,3.739,7.119,4.083
				c2.16,0.33,5.188-0.729,7.898-1.285c8.29-1.702,14.899-3.708,21.129-6.618c5.771-8.358,7.126-23.381,5.595-37.427
				c1.313-0.032,2.012,0.524,3.323,0.524v-1.287l0.751-1.017c-0.773-0.505-1.672-0.865-2.281-1.529
				c-0.099-1.013,0.583-1.272,0.511-2.291c6.226-1.632,12.623,0.625,18.831,1.278c0.164,1.937,0.817,3.417,1.01,5.359
				c-2.447-0.027-4.264-0.686-6.619-0.786v1.266l-0.77,1.017c3.314,1.383,8.53,0.819,11.46,2.565
				c0.752,1.752-1.456,2.35-2.542,3.059c-3.151,1.965-9.204,4.767-10.956,7.363c-5.277,7.898,7.64,8.58,13.766,9.938
				c9.202,2.031,17.351,3.248,24.425,5.859c-1.868,2.836-1.354,7.009-2.282,10.686c-0.674,2.713-3.754,5.332-1.283,8.142
				c-0.945,2.352-1.359,5.282-2.029,7.898c-0.179,1.435,1.667,0.872,1.788,2.039c-0.247,2.418-1.285,4.547-1.018,6.854
				c0.169,1.698,1.746,2.833,2.281,4.849c0.481,1.835-0.147,4.183,0.26,6.104c0.78,3.755,5.645,5.814,3.299,10.441
				c0.702,2.273,3.03,2.931,4.337,4.58c-0.24,5.401,2.226,8.145,5.837,9.669c0.923,1.623,1.041,3.772,2.065,5.352
				c0.702,1.121,2.609,1.507,3.803,2.545c1.74,1.505,1.892,4.238,3.051,5.353c0.991,0.927,2.567,0.195,3.823,1.022
				c1.915,1.231,1.77,3.899,3.562,5.095c1.214,0.31,2.72,0.334,3.807,0.741c1.356,0.612,1.14,2.783,2.57,3.317
				c3.998-0.916,6.079,0.605,7.629,2.794c3.157-1.314,5.818,2.686,8.899,2.562c2.051-0.094,2.972-1.745,4.333-1.281
				c1.985,0.674,1.575,4.387,4.341,3.566h0.235c0.435-0.586,1.938-0.102,2.817-0.252c0.627-0.21-0.3-2.011,0.744-1.783
				c1.242-0.126,2.983,0.26,3.828-0.25c1.889,4.194,7.808,0.634,10.184-0.773c1.576,0.628,2.299,1.283,3.824,1.283
				c3.005-0.04,4.893-3.976,8.143-2.305c2.352-2.133,5.202-3.772,6.35-7.117c4.698-0.492,8.961-4.843,12.741-8.407
				c6.592-6.231,10.977-13.16,14.519-22.15c2.374-6.104,5.402-12.16,3.801-19.33c0.508-0.677,2.207-0.175,2.304-1.292
				c-0.173-2.494-3.221-4.332-2.813-6.613c0.29-1.524,2.137-0.987,2.033-3.044c-1.764-1.119-1.551-4.22-2.777-5.868
				c1.057-1.892-0.075-3.993-0.273-6.102c4.408-0.025,9.155-1.56,11.976,1.014c6.244-2.907,12.593-5.716,19.334-8.147
				c-0.228,11.031,3.588,16.895,12.987,17.575c9.371,0.675,20.734-3.396,28.008-4.85c4.143,4.17,8.087,7.368,14.512,8.919
				c6.011,1.452,12.428,3.586,19.843,3.556c26.967-0.07,47.999-18.092,49.384-43.001C560.942,312,545.699,296.154,527.147,288.349
				 M225.99,302.11c-0.502-2.903,1.576-3.168,2.059-5.108c0.246,0,0.295,0.216,0.513,0.268l0.627-0.897l0.897-0.636v-0.503
				c1.162,0.166,1.575-0.464,2.037-1.02c-0.125-0.898-1.118-0.509-0.512-1.525c0.797-0.679,1.961,0.506,2.551-0.509
				c-0.277-0.686-1.557-0.319-1.535-1.283c0.562-1.191,1.334-0.948,2.545-0.51c0.22-1.434-1.26-1.556-0.509-2.788
				c0.874-0.215,0.976,0.36,1.766,0.242c0.565-0.847-1.037-1.306,0-2.271c0.73-0.223,0.659,0.351,1.291,0.237
				c0.405-0.237,0.261-1.065,0.504-1.524c2.253,0.133,4.094-0.152,6.108-0.244c0.192,4.051,1.18,7.285,1.017,11.698
				c-0.366,0.149-0.627,0.387-0.781,0.785l0.657,1.042l-0.138,1.229c1.037,0.171,1.454-0.243,2.294-0.243
				C242.252,301.701,232.817,306.064,225.99,302.11 M239.994,280.72c1.674,0.747,0.851-0.635,1.796-1.26
				c1.118,0.073,0.968,1.4,1.518,2.035c-0.527,0.63-1.759,0.604-2.807,0.747C240.362,281.706,239.875,281.518,239.994,280.72
				 M249.926,306.698c-1.909-0.324-3.827-0.613-5.854-0.774c1.521-0.783,3.768-0.806,5.615-1.267
				C249.494,305.605,250.101,305.747,249.926,306.698 M249.687,234.151c-4.964,2.469-8.333,6.584-6.379,12.715
				c0.351,1.049,1.195,2.203,1.261,3.297c0.154,2.083-1.709,3.971-1.52,5.858c-1.141,0.227-2.275,0.437-3.299,0.783
				c-0.58,0.094-0.091,1.232-0.263,1.765c-1.53-0.316-2.111-1.621-3.058-2.548c0.025-7.291-2.179-14.144-1.766-20.61
				c0.58-9.473,8.774-12.993,18.08-14.248h0.237C253.223,224.678,250.827,230.175,249.687,234.151 M413.599,251.96
				c0.409,0.535,0.85,1.039,1.02,1.788c-0.582,0.076-0.944,0.386-1.77,0.244C412.778,252.999,413.382,252.685,413.599,251.96
				 M384.599,206.385c3.61,1.711,9.914,7.705,12.208,11.208c2.431,3.693,4.172,8.787,6.375,13.235
				c2.277,4.686,4.895,8.966,6.104,13.495c3.586,13.549-9.109,11.977-21.39,11.977c-6.129,0-12.194,0.506-17.064,0.236
				c-0.433-0.627-0.242-3.246-0.502-4.307c-1.604-6.589-9.743-11.829-17.061-9.426c-1.771,0.577-3.49,2.077-4.822,3.295
				c-1.238,1.136-2.087,3.318-4.336,3.565c4.068-15.026,8.623-29.544,11.463-45.824
				C365.357,203.861,377.476,203.011,384.599,206.385 M339.026,256.805c-0.877-0.077-2.068,0.192-2.55-0.27
				c2.253-18.1,9.405-33.527,11.971-52.19c-0.222-1.479,2.083-0.436,3.051-0.749C348.959,222.666,342.343,237.957,339.026,256.805
				 M359.126,194.438c2.042,1.695,4.853,2.617,6.616,4.573c-2.945,0.078-5.712-0.05-8.378-0.266
				C357.747,197.103,358.672,195.982,359.126,194.438 M353.539,191.387c0.649,0.846,1.837,1.205,2.541,2.029
				c-0.388,1.896-1.14,3.446-2.03,4.831c-12.268,0.79-20.745-4.373-30.557-6.86C333.28,190.585,343.381,191.677,353.539,191.387
				 M331.902,197.729c-3.564,0.775-8.176,0.366-8.653-2.781C326.054,195.942,329.281,196.52,331.902,197.729 M323.754,202.822
				c7.218-0.098,14.18,0.073,20.871,0.506c-0.614,10.389-3.909,18.483-6.109,27.766c-1.744,7.39-3.375,14.705-6.107,21.368
				c-2.205-13.564-2.906-28.659-15.775-31.563c-0.316-3.594-1.892-7.932-0.507-11.2
				C316.998,207.615,322.524,204.973,323.754,202.822 M328.067,250.433c-6.223-5.723-8.113-15.797-10.174-25.706
				C326.257,228.311,327.371,239.184,328.067,250.433 M310.772,219.125c-0.954,0-1.49-0.388-2.034-0.774
				c-0.027-1.287,0.868-1.648,1.255-2.543C311.259,215.902,310.602,217.939,310.772,219.125 M312.028,223.2
				c1.506,5.98,3.034,11.919,4.1,18.312c-2.811-2.542-2.745-7.19-4.58-10.417c-1.432-2.447-3.833-2.738-5.862-4.605
				c0.046-1.62,0.723-2.639,0.746-4.307C308.593,222.226,310.046,222.978,312.028,223.2 M271.567,204.614
				c5.379-4.653,10.997-9.715,16.788-14.25c3.052,0.338,7.151,0.483,10.714,0.752c3.412,0.243,7.508-0.024,10.42,0.774
				c4.402,1.19,7.222,5.72,10.704,7.371c-2.151,1.305-4.583,2.57-6.12,4.577c-1.46,1.938-1.965,4.771-3.566,6.636
				c-0.771,0.899-2.062,1.241-2.792,2.043c-1.306,1.402-1.546,2.952-2.805,4.312c-8.096-6.838-23.702-6.158-37.923-6.855
				C267.207,207.354,269.848,206.091,271.567,204.614 M265.462,213.527c14.873,0.055,30.138-0.29,37.916,6.862
				c0.126,2.33-0.851,3.585-1.769,4.844c-3.149-0.339-3.824-3.127-5.624-4.844c-9.2-0.175-18.483-2.38-26.72,0
				c0.433,2.009-1.428,5.763-0.747,8.908c0.312,1.436,1.13,2.31,2.035,3.324c0.023,0.772-0.806,0.721-0.512,1.772
				c0.751,2.13,3.725,2.034,3.826,4.841c-2.762-1.5-6.4-2.107-9.181-3.56c2.374-3.732-1.193-5.159-5.088-4.846
				C261.488,224.994,263.645,219.414,265.462,213.527 M307.715,377.446c-0.727-6.187,1.073-11.953,2.792-16.528
				c4.235,2.466,8.155,5.236,12.234,7.875C324.439,377.446,314.453,376.429,307.715,377.446 M321.456,402.663
				c-4.632-3.942-9.135-7.995-11.196-14.509c4.802-1.914,14.687-6.956,17.06-0.782C329.48,392.991,322.304,397.771,321.456,402.663
				 M317.893,352.509c3.057-3.563,9.742-4.845,16.044-4.337c-0.12,3.704,0.144,7.003,0.243,10.44
				c-1.628,0.728-3.054,1.703-4.826,2.306C325.843,357.796,320.46,356.556,317.893,352.509 M331.63,407.758
				c1.897-6.179,2.086-17.018,9.932-16.311c1.818,4.992,3.709,9.861,5.363,15.021C343.508,408.532,336.476,408.697,331.63,407.758
				 M356.582,397.82c-4.015-1.429-3.771-7.098-6.098-10.176c2.277-2.474,4.7-4.803,6.349-7.9c1.575-0.045,2.52,0.557,4.096,0.51
				C361.021,386.649,360.369,394.473,356.582,397.82 M399.087,348.946c-2.253-8.943-7.368-15.043-12.962-20.621
				c-0.045-0.796,0.604-1.421,0-2.03c-5.862-7.896-17.979-12.53-29.027-16.04c-3.849-1.238-7.584-3.104-11.195-3.83
				c-2.541-0.479-5.476-0.313-8.136-0.501c-14.06-1.004-22.395,3.651-31.844,8.907c-3.124,1.753-6.631,3.131-7.87,5.355
				c-3.093,1.742-5.749,4.801-8.41,7.879c-2.466,2.856-5.814,6.081-7.119,9.157c-0.372,0.876-0.169,1.695-0.272,2.569
				c-9.523-1.379-19.019-3.369-28.494-5.113c-3.055-0.533-6.346-0.677-8.919-2.279c3.058-3.494,7.633-5.429,11.463-8.14
				c1.965,5.868,7.467,8.478,14.252,10.683c2.365,0.776,6.153,2.762,7.893,2.543c1.36-0.165,3.389-3.293,5.085-5.353
				c7.621-9.278,16.186-18.946,28.497-23.667c7.006-2.669,14.979-4.973,24.712-4.321c16.387,1.09,33.977,5.184,43.251,13.23
				c3.448,2.978,6.905,7.29,9.934,11.464c4.198,5.763,7.756,11.118,9.67,18.825c3.805-0.898,6.908-1.042,10.953-1.773
				c0.149,2.303,0.587,4.335,0.513,6.865C406.84,351.728,403.5,349.815,399.087,348.946 M368.562,287.094
				c-15.923-9.48-31.721-19.167-47.107-29.024c1.895-0.391,3.199-1.391,4.58-2.283c31.115,20.235,61.638,41.022,92.65,61.348
				C402.72,308.025,385.298,297.052,368.562,287.094 M434.221,347.665c-5.185,2.881-9.474,6.266-16.786,7.12
				c-0.176-3.828-1.12-6.853-1.288-10.687c7.483-0.814,16.187-3.025,23.426-4.062c2.045-0.292,3.521,1.037,5.332,1.287
				C441.661,343.782,437.935,345.603,434.221,347.665 M443.137,369.301c-3.681-3.174-5.862-14.489-1.018-18.072
				c5.474,2.18,12.012,3.27,18.316,4.573c-0.197,4.292,0.393,7.78,0.267,11.97C455.471,368.793,449.512,370.25,443.137,369.301
				 M503.979,309.234c0.288,3.028,0.967,5.644,1.017,8.915c-0.802-0.479-1.454-1.112-1.796-2.031
				c0.197-0.752,0.077-1.819,0.779-2.053C503.04,313.134,501.121,309.528,503.979,309.234 M489.976,333.926
				c-0.248-2.302,0.357-3.709,1.283-4.848c1.673,1.316,2.935,3.011,3.799,5.089C493.825,333.638,491.619,334.073,489.976,333.926
				 M506.013,353.521c-4.702-0.893-10.104-3.314-12.984-6.874c1.331-5.063,7.898-1.045,12.48-1.263
				C506.157,347.637,508.028,351.643,506.013,353.521 M517.475,328.325c-0.315-1.155,0.901-0.796,1.021-1.525l-0.492-1.106
				l-0.287-1.192c-0.846,0.072-1.745,0.925-2.545,0.262c-0.532-0.527,0.32-0.987,0.506-1.524l-1.008-0.781l-0.762-1.009
				c-2.126,1.186-4.115-0.798-6.104-1.265c-0.213-3.702-0.53-7.292-0.777-10.951c6.599,0.533,10.787,3.488,14.246,7.122l0.78,1.019
				l0.755,1.023c0.916-0.853,2.131,0.844,1.521,1.519l0.899,0.635l0.634,0.898c2.052,1.186,2.639,3.828,3.047,6.614
				C525.906,327.509,521.157,328.906,517.475,328.325 M519.752,350.207c-0.56-2.982-0.51-6.592-0.51-10.171
				c2.646,0.846,4.75,2.201,7.131,3.315C525.082,346.524,522.465,348.434,519.752,350.207 M528.91,335.965
				c-3.484-0.561-6.759-1.384-9.158-3.055c2.713-0.679,7.483-2.715,9.664-0.776C529.568,333.73,529.032,334.632,528.91,335.965"/>
		</g>
		<g clip-path="url(#SVGID_2_)">
			<path fill="#231F20" d="M205.366,488.035c-0.203-0.203-0.373-0.418-0.508-0.645c-0.136-0.226-0.271-0.451-0.407-0.678
				c-0.136-0.226-0.249-0.451-0.339-0.678c-0.136-0.226-0.249-0.463-0.339-0.712c-0.091-0.248-0.181-0.485-0.271-0.712
				c-0.091-0.226-0.169-0.463-0.237-0.712c-0.068-0.248-0.125-0.485-0.169-0.712c-0.046-0.09-0.08-0.192-0.102-0.306
				c-0.023-0.112-0.034-0.237-0.034-0.372c-0.045-0.091-0.068-0.192-0.068-0.306c0-0.112,0-0.237,0-0.373
				c-0.045-0.09-0.068-0.191-0.068-0.305c0-0.112,0-0.237,0-0.373c0-0.09,0-0.158,0-0.203s0-0.112,0-0.204c0-0.044,0-0.102,0-0.169
				c0-0.068,0-0.124,0-0.17c0-0.226,0-0.451,0-0.678c0-0.226,0.022-0.475,0.068-0.746c0-0.226,0.022-0.451,0.068-0.678
				c0.044-0.226,0.09-0.451,0.136-0.678c0.09-0.497,0.191-0.96,0.305-1.39c0.112-0.43,0.259-0.87,0.44-1.322
				c0.18-0.451,0.35-0.882,0.509-1.288c0.158-0.407,0.327-0.791,0.508-1.153c0.18-0.36,0.373-0.733,0.576-1.118
				c0.204-0.384,0.395-0.734,0.576-1.051c0.09-0.181,0.18-0.35,0.271-0.509c0.09-0.158,0.203-0.305,0.339-0.44
				c0.09-0.181,0.18-0.339,0.271-0.475c0.09-0.136,0.18-0.271,0.271-0.407c0.18-0.271,0.35-0.53,0.508-0.779
				c0.158-0.248,0.328-0.463,0.509-0.645c0.18-0.226,0.339-0.406,0.475-0.542c0.135-0.136,0.226-0.248,0.271-0.339
				c0.09-0.09,0.18-0.204,0.271-0.339c0.18,0,0.361,0,0.542,0c0.226,0,0.475,0,0.746,0c0.271,0,0.61,0,1.017,0
				c0.361,0,0.746,0,1.152,0s0.836,0,1.288,0c0.407,0,0.848,0,1.322,0s0.938,0,1.39,0c0.226,0,0.429,0,0.61,0c0.18,0,0.383,0,0.61,0
				c0.18,0,0.373,0,0.576,0s0.395,0,0.576,0c0.407,0,0.802,0,1.187,0c0.384,0,0.756,0,1.119,0c0.361,0,0.688,0,0.983,0
				c0.293,0,0.531,0,0.712,0c0.226,0,0.417,0,0.576,0c0.158,0,0.282,0,0.373,0c-0.407,0.633-0.791,1.254-1.152,1.864
				c-0.362,0.61-0.678,1.187-0.949,1.729c-0.317,0.588-0.588,1.143-0.813,1.661c-0.227,0.521-0.453,1.029-0.678,1.525
				c-0.181,0.498-0.362,0.983-0.542,1.458c-0.181,0.475-0.316,0.961-0.407,1.458c-0.091,0.452-0.159,0.893-0.203,1.321
				c-0.046,0.431-0.068,0.848-0.068,1.255c0,0.316,0.011,0.622,0.034,0.915c0.022,0.295,0.056,0.576,0.102,0.848
				c0.09,0.271,0.169,0.542,0.237,0.813c0.067,0.271,0.146,0.521,0.237,0.746c0.09,0.271,0.203,0.542,0.339,0.813
				s0.271,0.52,0.407,0.746c0.136,0.271,0.293,0.531,0.475,0.779c0.18,0.249,0.361,0.486,0.542,0.712
				c0.09,0.091,0.169,0.192,0.237,0.305c0.068,0.113,0.146,0.216,0.237,0.306c0.09,0.091,0.18,0.181,0.271,0.271
				c0.09,0.092,0.18,0.182,0.271,0.271c0.044,0.046,0.09,0.091,0.135,0.136c0.044,0.046,0.09,0.091,0.136,0.136
				c0.044,0.046,0.09,0.091,0.136,0.136c0.044,0.045,0.09,0.091,0.135,0.136c0.045,0.045,0.09,0.102,0.136,0.169
				c0.044,0.068,0.09,0.125,0.136,0.17c0.044,0.045,0.078,0.079,0.102,0.102c0.022,0.023,0.056,0.034,0.102,0.034
				c0,0.045,0.011,0.079,0.034,0.102c0.022,0.023,0.056,0.033,0.102,0.033c0.587,0.588,1.129,1.153,1.627,1.695
				c0.497,0.542,0.949,1.085,1.356,1.627c0.407,0.543,0.768,1.051,1.084,1.525c0.316,0.475,0.61,0.939,0.881,1.391
				c0.226,0.452,0.429,0.904,0.61,1.355c0.18,0.452,0.339,0.905,0.475,1.356c0.136,0.452,0.237,0.881,0.305,1.288
				c0.068,0.406,0.102,0.813,0.102,1.221c0,0.045,0,0.091,0,0.135c0,0.046,0,0.092,0,0.136c0,0.046,0,0.092,0,0.136
				c0,0.046,0,0.091,0,0.136c-0.045,0.046-0.068,0.091-0.068,0.136s0,0.091,0,0.136s0,0.091,0,0.135c0,0.046,0,0.092,0,0.136
				c-0.045,0.092-0.079,0.182-0.102,0.271c-0.023,0.091-0.034,0.182-0.034,0.271c0,0.045,0,0.091,0,0.136s0,0.091,0,0.135
				c-0.046,0.046-0.068,0.08-0.068,0.103s0,0.057,0,0.102c-0.136,0.542-0.305,1.085-0.509,1.627
				c-0.203,0.542-0.44,1.085-0.712,1.627c-0.271,0.543-0.588,1.097-0.949,1.661c-0.362,0.565-0.769,1.143-1.22,1.729
				c-0.452,0.588-0.915,1.186-1.39,1.796s-0.961,1.255-1.458,1.933c-0.542,0.678-1.084,1.379-1.627,2.102
				c-0.542,0.724-1.13,1.447-1.763,2.17c-0.227,0-0.453,0-0.678,0c-0.227,0-0.508,0-0.848,0c-0.339,0-0.735,0-1.187,0
				c-0.452,0-0.915,0-1.39,0s-0.961,0-1.458,0c-0.498,0-1.017,0-1.56,0s-1.085,0-1.627,0c-0.046-0.046-0.091-0.068-0.136-0.068
				c-0.045,0-0.091,0-0.136,0c-0.045,0-0.091,0-0.136,0c-0.045,0-0.091,0-0.135,0c-0.046,0-0.08,0-0.102,0c-0.023,0-0.057,0-0.102,0
				c-0.045,0-0.08,0-0.102,0c-0.023,0-0.057,0-0.102,0c-0.542,0-1.074,0-1.593,0c-0.521,0-1.029,0-1.526,0c-0.498,0-0.983,0-1.458,0
				s-0.938,0-1.39,0c-0.453,0-0.882,0-1.289,0s-0.746,0-1.017,0c-0.271,0-0.509,0-0.712,0c-0.204,0-0.351,0-0.441,0
				c1.039-0.993,2.011-1.966,2.916-2.915c0.903-0.949,1.717-1.83,2.44-2.645c0.768-0.813,1.468-1.569,2.102-2.271
				c0.632-0.7,1.197-1.345,1.695-1.933c0.497-0.587,0.916-1.152,1.254-1.695c0.339-0.542,0.644-1.039,0.915-1.491
				c0.226-0.497,0.407-0.972,0.542-1.424c0.136-0.451,0.204-0.903,0.204-1.356v-0.067c0-0.045,0-0.09,0-0.136
				c-0.045,0-0.068-0.022-0.068-0.067s0-0.09,0-0.136c0-0.045,0-0.078,0-0.102c0-0.022,0-0.057,0-0.102s0-0.091,0-0.136
				s0-0.09,0-0.136c-0.045-0.315-0.136-0.633-0.271-0.949c-0.136-0.315-0.295-0.633-0.475-0.949
				c-0.181-0.361-0.396-0.712-0.644-1.051c-0.249-0.339-0.532-0.688-0.848-1.051c-0.317-0.361-0.656-0.746-1.017-1.152
				c-0.362-0.407-0.746-0.836-1.152-1.289c-0.407-0.496-0.848-0.993-1.322-1.491c-0.475-0.497-0.961-1.039-1.458-1.627v-0.203
				C205.762,488.408,205.57,488.238,205.366,488.035z M225.672,461.763l12.271-1.017l-3.458,18.78l-11.391,0.339L225.672,461.763z"
				/>
			<path fill="#231F20" d="M244.214,513.799c-0.656-0.429-1.254-0.893-1.797-1.39s-1.029-1.051-1.458-1.661
				c-0.43-0.61-0.803-1.255-1.119-1.933c-0.317-0.633-0.61-1.345-0.881-2.136c-0.271-0.79-0.475-1.638-0.61-2.542
				c-0.181-0.904-0.305-1.854-0.373-2.848s-0.102-2.057-0.102-3.187c0-0.994,0.022-2.034,0.068-3.119
				c0.044-1.085,0.136-2.214,0.271-3.39c0.09-1.175,0.226-2.396,0.407-3.661c0.18-1.266,0.384-2.599,0.61-4
				c0.226-1.356,0.475-2.791,0.746-4.306c0.271-1.514,0.565-3.085,0.882-4.712c0.315-1.627,0.654-3.311,1.017-5.051
				c0.361-1.74,0.746-3.56,1.153-5.458c0.226,0,0.429,0,0.61,0c0.226,0,0.485,0,0.779,0c0.293,0,0.667,0,1.119,0
				c0.407,0,0.824,0,1.254,0c0.429,0,0.87,0,1.322,0c0.497,0,0.983,0,1.458,0s0.96,0,1.458,0c0.361,0,0.734,0,1.119,0
				c0.383,0,0.756,0,1.119,0c0.361,0,0.722,0,1.084,0c0.361,0,0.723,0,1.085,0c0.361,0,0.688,0,0.983,0c0.293,0,0.577,0,0.848,0
				c0.226,0,0.441,0,0.644,0c0.204,0,0.395,0,0.576,0c-0.452,1.943-0.881,3.808-1.288,5.593c-0.407,1.786-0.792,3.537-1.152,5.255
				c-0.362,1.673-0.712,3.312-1.051,4.915c-0.339,1.605-0.667,3.131-0.983,4.577c-0.317,1.446-0.6,2.848-0.848,4.203
				c-0.249,1.356-0.44,2.645-0.576,3.864c-0.181,1.267-0.305,2.453-0.373,3.56c-0.067,1.108-0.079,2.182-0.034,3.221
				c0,0.77,0.022,1.515,0.068,2.237c0.044,0.724,0.136,1.401,0.271,2.034c0.136,0.634,0.293,1.243,0.475,1.83
				c0.18,0.588,0.407,1.131,0.678,1.628c0.226,0.542,0.508,1.04,0.847,1.491c0.339,0.452,0.712,0.882,1.119,1.288
				c0.407,0.407,0.882,0.77,1.424,1.085c0.542,0.316,1.107,0.588,1.695,0.813l6.916-51.324h15.187l-9.289,54.308
				c-0.317,0-0.633,0-0.949,0c-0.317,0-0.689,0-1.119,0c-0.43,0-0.938,0-1.525,0c-0.588,0-1.198,0-1.831,0c-0.634,0-1.288,0-1.966,0
				s-1.356,0-2.034,0c-0.678,0-1.401,0-2.169,0c-0.045,0-0.091-0.023-0.136-0.068c-0.045,0-0.079,0-0.102,0
				c-0.023,0-0.057,0-0.102,0c-0.045,0-0.091,0-0.136,0c-0.045,0-0.091,0-0.136,0c-0.045,0-0.091,0-0.135,0
				c-0.046,0-0.091,0-0.136,0c-0.045,0-0.091,0-0.136,0c-0.045,0-0.091,0-0.135,0c-0.724,0-1.424,0-2.102,0
				c-0.678,0-1.333,0-1.966,0c-0.678,0-1.322,0-1.932,0s-1.232,0-1.864,0c-0.588,0-1.142,0-1.661,0c-0.521,0-0.961,0-1.322,0
				c-0.407,0-0.746,0-1.017,0c-0.271,0-0.475,0-0.61,0C245.581,514.602,244.869,514.229,244.214,513.799z"/>
			<path fill="#231F20" d="M284.859,463.661h20.882l2.577,29.086l4.542-31.866h13.018c0,0.092-0.034,0.329-0.102,0.712
				c-0.067,0.385-0.169,0.916-0.305,1.594c-0.136,0.678-0.295,1.537-0.475,2.576c-0.181,1.04-0.385,2.237-0.61,3.594
				c-0.227,1.401-0.464,2.825-0.712,4.271c-0.249,1.446-0.508,2.915-0.78,4.406c-0.136,0.724-0.271,1.481-0.407,2.271
				c-0.136,0.792-0.271,1.571-0.407,2.339c-0.181,0.77-0.339,1.56-0.475,2.373s-0.271,1.628-0.407,2.441
				c-0.317,1.673-0.622,3.3-0.916,4.881c-0.294,1.583-0.576,3.143-0.847,4.679c-0.271,1.537-0.542,3.028-0.814,4.475
				c-0.271,1.447-0.52,2.848-0.746,4.203c-0.227,1.402-0.43,2.622-0.61,3.661c-0.181,1.041-0.339,1.898-0.475,2.577
				c-0.135,0.724-0.249,1.446-0.339,2.169c0,0.046-0.034,0.08-0.102,0.102c-0.068,0.023-0.147,0.034-0.237,0.034
				c-0.045,0-0.102,0-0.169,0s-0.125,0-0.169,0c-0.091,0.046-0.181,0.068-0.271,0.068c-0.091,0-0.181,0-0.271,0
				c-0.181,0.045-0.396,0.079-0.644,0.102c-0.249,0.023-0.486,0.033-0.712,0.033c-0.136,0-0.261,0-0.373,0c-0.113,0-0.237,0-0.373,0
				c-0.135,0.046-0.271,0.068-0.407,0.068s-0.271,0-0.407,0c-0.181,0.046-0.351,0.079-0.508,0.102
				c-0.159,0.023-0.305,0.034-0.441,0.034s-0.283,0-0.44,0c-0.159,0-0.329,0-0.509,0c-0.181,0.045-0.351,0.067-0.508,0.067
				c-0.159,0-0.305,0-0.441,0c-0.181,0-0.351,0-0.508,0c-0.159,0-0.305,0-0.441,0c-0.498,0.046-0.983,0.08-1.458,0.102
				c-0.475,0.023-0.961,0.034-1.458,0.034c-0.453,0-0.905,0-1.356,0c-0.453,0-0.882,0-1.289,0c-0.181,0-0.373,0-0.576,0
				c-0.203,0-0.373,0-0.508,0c-0.136,0-0.271,0-0.407,0c-0.136,0-0.249,0.022-0.339,0.067c-0.091,0-0.169,0-0.237,0
				s-0.147,0-0.237,0c-0.045,0-0.091,0-0.135,0l-3.254-30.441l-5.695,30.441H280.52L284.859,463.661z"/>
			<path fill="#231F20" d="M330.487,469.288h14.645l-7.797-5.152c0,0.091,0.044,0.147,0.135,0.17
				c0.09,0.022,0.226,0.011,0.407-0.034c0.226-0.045,0.485-0.102,0.78-0.17c0.293-0.067,0.644-0.146,1.051-0.237
				c0.407-0.09,0.814-0.18,1.221-0.271s0.836-0.181,1.288-0.271c0.451-0.09,0.916-0.192,1.39-0.306
				c0.475-0.112,0.96-0.214,1.458-0.305c0.044,0,0.09,0,0.136,0l0.067-0.067h0.068c0.226-0.045,0.429-0.091,0.61-0.136
				c0.18-0.045,0.361-0.09,0.542-0.136c0.226,0,0.429-0.022,0.61-0.068c0.18-0.044,0.361-0.09,0.542-0.135
				c0.361-0.091,0.734-0.181,1.119-0.271c0.384-0.09,0.756-0.181,1.119-0.271c0.18-0.044,0.35-0.078,0.509-0.102
				c0.158-0.022,0.305-0.056,0.44-0.102c0.136,0,0.271-0.011,0.407-0.034c0.136-0.022,0.271-0.056,0.407-0.102
				c0.226-0.09,0.417-0.146,0.576-0.17c0.158-0.021,0.282-0.056,0.373-0.102c1.175,0.453,2.293,0.938,3.356,1.458
				c1.062,0.521,2.022,1.028,2.881,1.525c0.904,0.543,1.706,1.085,2.407,1.627c0.701,0.543,1.322,1.108,1.865,1.695
				c0.541,0.588,1.016,1.187,1.424,1.797c0.406,0.61,0.746,1.231,1.016,1.864c0.271,0.678,0.475,1.356,0.611,2.034
				c0.135,0.678,0.203,1.379,0.203,2.102c0,0.724-0.068,1.458-0.203,2.203c-0.137,0.746-0.316,1.526-0.543,2.34
				c-0.271,0.813-0.588,1.627-0.949,2.44s-0.791,1.65-1.287,2.509c-0.498,0.859-1.041,1.74-1.629,2.644
				c-0.587,0.905-1.22,1.831-1.897,2.78c-0.678,0.949-1.402,1.922-2.17,2.915c-0.769,0.995-1.583,2.012-2.44,3.051
				c0.226,0.182,0.463,0.373,0.712,0.577c0.248,0.203,0.485,0.396,0.712,0.576c0.09,0.091,0.191,0.181,0.305,0.271
				c0.112,0.092,0.237,0.159,0.373,0.204c0.09,0.091,0.192,0.181,0.305,0.271c0.112,0.092,0.214,0.182,0.305,0.271
				c0.226,0.182,0.417,0.351,0.576,0.509c0.158,0.158,0.328,0.305,0.509,0.44c0.09,0.091,0.169,0.182,0.237,0.271
				c0.067,0.091,0.146,0.158,0.237,0.203c0.044,0.091,0.112,0.17,0.203,0.237c0.09,0.067,0.158,0.147,0.204,0.237
				c0.09,0.136,0.191,0.271,0.305,0.407c0.112,0.135,0.192,0.271,0.237,0.406c0.09,0.136,0.17,0.271,0.237,0.407
				c0.068,0.136,0.124,0.271,0.17,0.406c0,0.046,0.01,0.102,0.034,0.17c0.022,0.067,0.056,0.147,0.102,0.237
				c0,0.045,0.011,0.102,0.034,0.169c0.021,0.068,0.057,0.147,0.102,0.237c0,0.092,0,0.17,0,0.237c0,0.068,0,0.147,0,0.237
				c0,0.046,0,0.08,0,0.102c0,0.023,0.022,0.058,0.068,0.103c0,0.045,0,0.079,0,0.102c0,0.023,0,0.057,0,0.102
				c0,0.316-0.046,0.667-0.137,1.051c-0.09,0.385-0.203,0.779-0.338,1.187s-0.317,0.825-0.542,1.254
				c-0.227,0.431-0.498,0.871-0.813,1.322c-0.317,0.452-0.656,0.938-1.017,1.458c-0.362,0.521-0.792,1.074-1.288,1.661
				c-0.453,0.588-0.973,1.187-1.56,1.797c-0.588,0.609-1.198,1.209-1.831,1.796c-0.181,0-0.362,0-0.542,0c-0.181,0-0.407,0-0.678,0
				c-0.271,0-0.588,0-0.949,0c-0.362,0-0.746,0-1.153,0s-0.813,0-1.22,0s-0.825,0-1.254,0c-0.43,0-0.871,0.022-1.322,0.068
				c-0.046,0-0.091,0-0.136,0c-0.045,0-0.091,0-0.136,0h-0.068c-0.045,0-0.091,0-0.135,0c-0.046,0-0.091,0-0.136,0
				c-0.452,0-0.881,0-1.288,0s-0.814,0-1.221,0s-0.803,0-1.187,0c-0.384,0-0.757,0-1.119,0c-0.362,0-0.701,0-1.017,0
				c-0.317,0-0.588,0-0.814,0c-0.227,0-0.418,0-0.576,0c-0.159,0-0.283,0-0.373,0c0.542-0.587,1.073-1.209,1.593-1.864
				c0.52-0.655,1.005-1.277,1.458-1.865c0.497-0.632,0.971-1.242,1.424-1.83c0.451-0.587,0.881-1.152,1.288-1.695
				c0.407-0.542,0.768-1.073,1.085-1.593c0.315-0.52,0.564-1.006,0.746-1.458c0.226-0.497,0.383-0.972,0.475-1.424
				c0.09-0.451,0.136-0.903,0.136-1.355c0-0.136-0.012-0.271-0.034-0.407c-0.023-0.136-0.034-0.271-0.034-0.407
				c-0.046-0.09-0.091-0.203-0.136-0.339c-0.045-0.136-0.091-0.271-0.136-0.406c-0.135-0.226-0.283-0.463-0.44-0.712
				c-0.159-0.248-0.351-0.485-0.576-0.712c-0.136-0.09-0.271-0.192-0.407-0.306c-0.135-0.112-0.271-0.237-0.407-0.372
				c-0.135-0.091-0.294-0.192-0.475-0.306c-0.181-0.112-0.362-0.214-0.542-0.305c-0.181-0.091-0.373-0.181-0.576-0.271
				c-0.203-0.09-0.418-0.203-0.644-0.339c-0.227-0.09-0.452-0.181-0.678-0.271c-0.227-0.09-0.475-0.18-0.746-0.271l-3.729,18.51
				H325.47L330.487,469.288z M345.234,471.018c-0.023,0.385-0.08,0.779-0.169,1.187c-0.045,0.452-0.125,0.927-0.237,1.424
				c-0.113,0.498-0.215,1.04-0.305,1.627c-0.045,0.316-0.091,0.622-0.136,0.915c-0.045,0.295-0.091,0.6-0.135,0.915
				c-0.046,0.317-0.091,0.622-0.136,0.916c-0.045,0.294-0.091,0.576-0.136,0.848c-0.045,0.316-0.102,0.633-0.169,0.948
				c-0.068,0.317-0.125,0.634-0.169,0.949c-0.045,0.317-0.091,0.634-0.136,0.949c-0.045,0.317-0.091,0.634-0.136,0.949
				c-0.091,0.588-0.192,1.187-0.305,1.797c-0.113,0.61-0.215,1.21-0.305,1.797c-0.091,0.588-0.181,1.152-0.271,1.695
				c-0.091,0.542-0.181,1.084-0.271,1.627c-0.091,0.542-0.169,1.062-0.237,1.56c-0.068,0.498-0.147,0.949-0.237,1.355
				c-0.045,0.407-0.091,0.792-0.136,1.152c-0.045,0.362-0.091,0.702-0.135,1.018c0.09-0.09,0.191-0.191,0.305-0.306
				c0.112-0.112,0.214-0.214,0.305-0.305c0.09-0.09,0.192-0.191,0.305-0.305c0.112-0.112,0.214-0.237,0.305-0.373
				c0.09-0.09,0.192-0.192,0.305-0.306c0.112-0.112,0.237-0.237,0.373-0.372c0.09-0.136,0.192-0.271,0.305-0.407
				c0.112-0.136,0.237-0.271,0.373-0.407c0.226-0.315,0.463-0.632,0.712-0.949c0.248-0.315,0.508-0.632,0.78-0.949
				c0.135-0.18,0.271-0.35,0.407-0.508s0.271-0.327,0.407-0.509c0.09-0.18,0.204-0.361,0.339-0.542
				c0.136-0.181,0.271-0.361,0.407-0.543c0.226-0.361,0.463-0.723,0.712-1.085c0.248-0.36,0.485-0.722,0.712-1.084
				c0.226-0.361,0.429-0.734,0.61-1.119c0.18-0.384,0.361-0.756,0.542-1.118c0.09-0.227,0.192-0.464,0.305-0.712
				c0.112-0.248,0.214-0.509,0.305-0.78c0.09-0.271,0.191-0.542,0.305-0.813c0.112-0.271,0.192-0.542,0.237-0.813
				c0.044-0.136,0.079-0.26,0.102-0.373c0.022-0.112,0.056-0.237,0.102-0.373c0-0.09,0.011-0.203,0.034-0.339
				c0.022-0.136,0.056-0.271,0.102-0.406c0-0.136,0.01-0.271,0.034-0.407c0.022-0.136,0.034-0.271,0.034-0.407
				c0.045-0.09,0.068-0.203,0.068-0.339s0-0.271,0-0.406c0-0.361-0.034-0.734-0.102-1.119c-0.068-0.384-0.147-0.734-0.237-1.051
				c-0.136-0.361-0.283-0.712-0.441-1.051c-0.159-0.339-0.351-0.666-0.576-0.983c-0.227-0.315-0.498-0.61-0.813-0.881
				c-0.317-0.271-0.656-0.543-1.017-0.813c-0.407-0.226-0.837-0.452-1.288-0.679c-0.452-0.226-0.949-0.429-1.492-0.61v-0.203
				C345.29,470.261,345.256,470.634,345.234,471.018z"/>
			<path fill="#231F20" d="M372.353,513.799c-0.655-0.429-1.254-0.893-1.796-1.39c-0.543-0.497-1.029-1.051-1.458-1.661
				c-0.431-0.61-0.803-1.255-1.119-1.933c-0.316-0.633-0.609-1.345-0.881-2.136c-0.271-0.79-0.475-1.638-0.61-2.542
				c-0.182-0.904-0.305-1.854-0.373-2.848c-0.067-0.994-0.102-2.057-0.102-3.187c0-0.994,0.022-2.034,0.067-3.119
				s0.136-2.214,0.271-3.39c0.09-1.175,0.226-2.396,0.407-3.661c0.18-1.266,0.383-2.599,0.61-4c0.226-1.356,0.475-2.791,0.745-4.306
				c0.271-1.514,0.564-3.085,0.882-4.712c0.315-1.627,0.654-3.311,1.017-5.051c0.361-1.74,0.746-3.56,1.152-5.458
				c0.226,0,0.43,0,0.61,0c0.226,0,0.485,0,0.78,0c0.293,0,0.666,0,1.118,0c0.407,0,0.824,0,1.255,0c0.429,0,0.869,0,1.321,0
				c0.497,0,0.983,0,1.458,0s0.96,0,1.458,0c0.361,0,0.734,0,1.118,0s0.757,0,1.119,0c0.361,0,0.723,0,1.085,0
				c0.361,0,0.722,0,1.084,0c0.361,0,0.689,0,0.983,0s0.576,0,0.848,0c0.226,0,0.44,0,0.645,0c0.203,0,0.395,0,0.576,0
				c-0.453,1.943-0.882,3.808-1.288,5.593c-0.407,1.786-0.792,3.537-1.153,5.255c-0.362,1.673-0.712,3.312-1.051,4.915
				c-0.339,1.605-0.667,3.131-0.982,4.577c-0.317,1.446-0.6,2.848-0.848,4.203c-0.249,1.356-0.441,2.645-0.576,3.864
				c-0.182,1.267-0.306,2.453-0.373,3.56c-0.068,1.108-0.08,2.182-0.034,3.221c0,0.77,0.022,1.515,0.067,2.237
				c0.045,0.724,0.136,1.401,0.271,2.034c0.136,0.634,0.294,1.243,0.475,1.83c0.181,0.588,0.407,1.131,0.678,1.628
				c0.226,0.542,0.509,1.04,0.848,1.491c0.339,0.452,0.712,0.882,1.119,1.288c0.406,0.407,0.881,0.77,1.424,1.085
				c0.542,0.316,1.106,0.588,1.694,0.813l6.916-51.324h15.187l-9.288,54.308c-0.316,0-0.634,0-0.949,0c-0.316,0-0.689,0-1.119,0
				s-0.938,0-1.525,0c-0.588,0-1.198,0-1.83,0c-0.634,0-1.288,0-1.967,0c-0.678,0-1.355,0-2.033,0c-0.679,0-1.401,0-2.17,0
				c-0.046,0-0.091-0.023-0.136-0.068c-0.045,0-0.079,0-0.102,0c-0.023,0-0.058,0-0.102,0c-0.046,0-0.091,0-0.136,0
				c-0.046,0-0.091,0-0.136,0s-0.091,0-0.136,0s-0.091,0-0.135,0c-0.046,0-0.092,0-0.136,0c-0.046,0-0.092,0-0.136,0
				c-0.724,0-1.424,0-2.102,0c-0.679,0-1.334,0-1.967,0c-0.678,0-1.322,0-1.932,0c-0.61,0-1.232,0-1.865,0c-0.588,0-1.142,0-1.661,0
				s-0.961,0-1.321,0c-0.407,0-0.746,0-1.018,0s-0.475,0-0.61,0C373.72,514.602,373.008,514.229,372.353,513.799z"/>
			<path fill="#231F20" d="M413.744,514.646c-0.046-0.09-0.125-0.226-0.237-0.407c-0.113-0.18-0.237-0.384-0.373-0.61
				c-0.045-0.09-0.113-0.203-0.203-0.339c-0.091-0.136-0.159-0.271-0.203-0.406c-0.092-0.136-0.17-0.271-0.237-0.407
				c-0.068-0.136-0.147-0.293-0.237-0.475c-0.136-0.315-0.283-0.654-0.441-1.017c-0.158-0.361-0.328-0.769-0.508-1.221
				c-0.182-0.407-0.351-0.836-0.509-1.288c-0.159-0.451-0.305-0.926-0.44-1.424c-0.182-0.497-0.339-1.027-0.475-1.594
				c-0.136-0.564-0.271-1.141-0.407-1.729c-0.136-0.587-0.249-1.187-0.339-1.797c-0.091-0.61-0.182-1.254-0.271-1.932
				c-0.045-0.679-0.091-1.356-0.136-2.034s-0.067-1.379-0.067-2.102c0-1.221,0.078-2.485,0.237-3.797
				c0.158-1.311,0.396-2.667,0.712-4.068c0.361-1.355,0.779-2.757,1.254-4.203s1.028-2.938,1.661-4.475
				c0.633-1.492,1.424-3.006,2.373-4.543c0.949-1.536,2.057-3.073,3.322-4.61c1.265-1.536,2.678-3.085,4.237-4.645
				s3.288-3.129,5.187-4.712c0.271,0,0.543,0,0.814,0c0.271,0,0.62,0,1.051,0c0.429,0,0.938,0,1.525,0c0.542,0,1.118,0,1.729,0
				s1.209,0,1.797,0c0.633,0,1.276,0,1.933,0c0.654,0,1.321,0,2,0c0.496,0,1.005,0,1.525,0c0.519,0,1.005,0,1.457,0
				c0.497,0,0.983,0,1.458,0s0.938,0,1.39,0c0.497,0,0.949,0,1.356,0c0.406,0,0.768,0,1.085,0c0.361,0,0.678,0,0.949,0
				c0.271,0,0.519,0,0.745,0c-2.486,1.989-4.769,3.933-6.848,5.831s-3.955,3.729-5.627,5.491c-1.673,1.809-3.131,3.537-4.373,5.187
				c-1.244,1.651-2.271,3.267-3.085,4.848c-0.859,1.537-1.604,3.041-2.237,4.509c-0.634,1.47-1.152,2.859-1.56,4.17
				c-0.406,1.356-0.712,2.634-0.915,3.831c-0.203,1.198-0.306,2.339-0.306,3.424c0,0.588,0.022,1.164,0.068,1.729
				c0.044,0.565,0.09,1.097,0.136,1.594c0.09,0.542,0.18,1.051,0.271,1.525s0.226,0.938,0.407,1.39
				c0.136,0.452,0.282,0.881,0.44,1.288s0.327,0.791,0.509,1.152c0.18,0.362,0.361,0.712,0.542,1.051s0.361,0.645,0.543,0.916
				c0.18,0.316,0.35,0.609,0.508,0.881s0.306,0.521,0.441,0.746c0.136,0.227,0.281,0.44,0.44,0.644
				c0.158,0.204,0.327,0.373,0.509,0.509c0.136,0.182,0.271,0.316,0.406,0.407s0.226,0.181,0.271,0.271
				c0.09,0.046,0.18,0.113,0.271,0.204l3.729-26.578h14.306l-4.882,29.019h-28.476C413.902,514.805,413.834,514.737,413.744,514.646
				z"/>
			<path fill="#231F20" d="M453.338,514.646c-0.046-0.09-0.125-0.226-0.237-0.407c-0.113-0.18-0.237-0.384-0.373-0.61
				c-0.045-0.09-0.113-0.203-0.203-0.339c-0.091-0.136-0.159-0.271-0.203-0.406c-0.092-0.136-0.17-0.271-0.237-0.407
				c-0.068-0.136-0.147-0.293-0.237-0.475c-0.136-0.315-0.283-0.654-0.441-1.017c-0.158-0.361-0.328-0.769-0.508-1.221
				c-0.182-0.407-0.351-0.836-0.509-1.288c-0.159-0.451-0.305-0.926-0.44-1.424c-0.182-0.497-0.339-1.027-0.475-1.594
				c-0.136-0.564-0.271-1.141-0.407-1.729c-0.136-0.587-0.249-1.187-0.339-1.797c-0.091-0.61-0.182-1.254-0.271-1.932
				c-0.045-0.679-0.091-1.356-0.136-2.034s-0.067-1.379-0.067-2.102c0-1.221,0.078-2.485,0.237-3.797
				c0.158-1.311,0.396-2.667,0.712-4.068c0.361-1.355,0.779-2.757,1.254-4.203s1.028-2.938,1.661-4.475
				c0.633-1.492,1.424-3.006,2.373-4.543c0.949-1.536,2.057-3.073,3.322-4.61c1.265-1.536,2.678-3.085,4.237-4.645
				s3.288-3.129,5.187-4.712c0.271,0,0.543,0,0.814,0c0.271,0,0.62,0,1.051,0c0.429,0,0.938,0,1.525,0c0.542,0,1.118,0,1.729,0
				s1.209,0,1.797,0c0.633,0,1.276,0,1.933,0c0.654,0,1.321,0,2,0c0.496,0,1.005,0,1.525,0c0.519,0,1.005,0,1.457,0
				c0.497,0,0.983,0,1.458,0s0.938,0,1.39,0c0.497,0,0.949,0,1.356,0c0.406,0,0.768,0,1.085,0c0.361,0,0.678,0,0.949,0
				c0.271,0,0.519,0,0.745,0c-2.486,1.989-4.769,3.933-6.848,5.831s-3.955,3.729-5.627,5.491c-1.673,1.809-3.131,3.537-4.373,5.187
				c-1.244,1.651-2.271,3.267-3.085,4.848c-0.859,1.537-1.604,3.041-2.237,4.509c-0.634,1.47-1.152,2.859-1.56,4.17
				c-0.406,1.356-0.712,2.634-0.915,3.831c-0.203,1.198-0.306,2.339-0.306,3.424c0,0.588,0.022,1.164,0.068,1.729
				c0.044,0.565,0.09,1.097,0.136,1.594c0.09,0.542,0.18,1.051,0.271,1.525s0.226,0.938,0.407,1.39
				c0.136,0.452,0.282,0.881,0.44,1.288s0.327,0.791,0.509,1.152c0.18,0.362,0.361,0.712,0.542,1.051s0.361,0.645,0.543,0.916
				c0.18,0.316,0.35,0.609,0.508,0.881s0.306,0.521,0.441,0.746c0.136,0.227,0.281,0.44,0.44,0.644
				c0.158,0.204,0.327,0.373,0.509,0.509c0.136,0.182,0.271,0.316,0.406,0.407s0.226,0.181,0.271,0.271
				c0.09,0.046,0.18,0.113,0.271,0.204l3.729-26.578h14.306l-4.882,29.019h-28.476C453.496,514.805,453.428,514.737,453.338,514.646
				z"/>
			<path fill="#231F20" d="M490.255,501.188c-0.023-0.022-0.058-0.079-0.102-0.17c-0.046-0.09-0.08-0.203-0.103-0.339
				c-0.023-0.136-0.079-0.294-0.169-0.475c-0.046-0.181-0.102-0.384-0.17-0.61c-0.067-0.226-0.147-0.475-0.237-0.746
				c-0.045-0.271-0.102-0.576-0.169-0.915c-0.068-0.339-0.147-0.688-0.237-1.051c-0.092-0.361-0.17-0.768-0.237-1.221
				c-0.068-0.451-0.147-0.903-0.237-1.355c-0.046-0.497-0.102-0.994-0.17-1.492c-0.067-0.496-0.147-1.039-0.237-1.627
				c-0.046-0.587-0.102-1.197-0.169-1.83c-0.068-0.633-0.103-1.288-0.103-1.967c-0.045-0.678-0.067-1.39-0.067-2.136
				c0-0.745,0-1.525,0-2.339c0-0.633,0-1.265,0-1.898c0-0.632,0.022-1.288,0.067-1.966c0-0.678,0.034-1.39,0.103-2.136
				c0.067-0.746,0.123-1.502,0.169-2.271c0.045-0.768,0.102-1.536,0.17-2.305c0.067-0.769,0.146-1.56,0.237-2.373
				c0.09-0.813,0.191-1.661,0.305-2.543c0.112-0.881,0.237-1.773,0.373-2.678c0.136,0,0.293,0,0.475,0c0.136,0,0.315,0,0.542,0
				c0.226,0,0.497,0,0.813,0s0.645,0,0.983,0s0.688,0,1.051,0c0.361,0,0.734,0,1.119,0c0.384,0,0.802,0,1.254,0
				c0.045,0.045,0.102,0.067,0.17,0.067c0.067,0,0.124,0,0.169,0c0.091,0,0.17,0,0.237,0c0.068,0,0.124,0,0.17,0
				c0.044,0,0.078,0,0.102,0c0.022,0,0.057,0,0.102,0s0.09,0,0.136,0c0.045,0,0.09,0,0.136,0c0.09,0,0.158,0,0.203,0
				s0.078,0,0.102,0c0.022,0,0.057,0,0.102,0c0.361,0,0.712,0,1.052,0c0.339,0,0.666,0,0.982,0c0.181,0,0.35,0,0.509,0
				c0.158,0,0.327,0,0.509,0c0.135,0,0.281,0,0.44,0c0.158,0,0.327,0,0.509,0c0.315,0,0.609,0,0.881,0s0.543,0,0.813,0
				c0.271,0,0.509,0,0.712,0c0.204,0,0.396,0,0.576,0c-0.316,1.492-0.588,2.927-0.813,4.306c-0.227,1.379-0.43,2.678-0.61,3.898
				c-0.181,1.266-0.351,2.452-0.508,3.56c-0.159,1.107-0.283,2.181-0.373,3.22c-0.091,0.995-0.17,1.956-0.237,2.882
				c-0.068,0.927-0.125,1.797-0.17,2.61s-0.079,1.583-0.102,2.306c-0.023,0.723-0.034,1.401-0.034,2.033c0,0.453,0,0.882,0,1.288
				c0,0.407,0.022,0.792,0.068,1.153c0,0.362,0.011,0.701,0.034,1.017c0.021,0.316,0.056,0.61,0.102,0.882
				c0.044,0.316,0.078,0.6,0.102,0.847c0.022,0.249,0.056,0.486,0.102,0.712c0.045,0.182,0.078,0.373,0.102,0.577
				c0.022,0.203,0.057,0.396,0.102,0.576s0.079,0.339,0.102,0.475s0.057,0.271,0.103,0.406c0.044,0.136,0.078,0.237,0.102,0.306
				c0.021,0.067,0.056,0.146,0.102,0.237c0.044,0.045,0.078,0.102,0.102,0.169c0.022,0.068,0.034,0.125,0.034,0.17
				s0.021,0.067,0.067,0.067l9.764-38.035h16.61l-16.543,54.375H499.17l2.78-13.831l-11.662,0.067
				C490.288,501.178,490.276,501.211,490.255,501.188z"/>
		</g>
		<line clip-path="url(#SVGID_2_)" fill="#FFFFFF" x1="243.308" y1="315.584" x2="231.104" y2="313.303"/>
		
			<line clip-path="url(#SVGID_2_)" fill="none" stroke="#231F20" stroke-width="2.5585" stroke-miterlimit="10" x1="243.308" y1="315.584" x2="231.104" y2="313.303"/>
	</g>
</g>
</svg>
